<svg width="32" height="32" viewBox="0 0 32 32" fill="none" xmlns="http://www.w3.org/2000/svg">
<g opacity="0.5">
<path fill-rule="evenodd" clip-rule="evenodd" d="M4 4.5C4.82843 4.5 5.5 5.17157 5.5 6V24.5H28C28.8284 24.5 29.5 25.1716 29.5 26C29.5 26.8284 28.8284 27.5 28 27.5H4C3.17157 27.5 2.5 26.8284 2.5 26V6C2.5 5.17157 3.17157 4.5 4 4.5Z" fill="black"/>
<path fill-rule="evenodd" clip-rule="evenodd" d="M29.1289 11.0122C29.6744 11.6357 29.6112 12.5833 28.9878 13.1289L20.9878 20.1289C20.4544 20.5956 19.667 20.6253 19.1 20.2L12.0727 14.9295L4.98778 21.1289C4.36432 21.6744 3.41668 21.6112 2.87116 20.9878C2.32563 20.3643 2.38881 19.4167 3.01226 18.8711L11.0123 11.8711C11.5457 11.4044 12.333 11.3747 12.9 11.8L19.9273 17.0705L27.0123 10.8711C27.6357 10.3256 28.5834 10.3888 29.1289 11.0122Z" fill="black"/>
</g>
</svg>
